<?xml version="1.0" encoding="UTF-8"?>
<svg height="16px" viewBox="0 0 16 16" width="16px" xmlns="http://www.w3.org/2000/svg">
    <g fill="#2e3436">
        <path d="m 15.003906 13.015625 h -1 c -0.550781 0 -1 0.445313 -1 1 c 0 0.550781 0.449219 1 1 1 h 1 c 0.554688 0 1 -0.449219 1 -1 c 0 -0.554687 -0.445312 -1 -1 -1 z m -2.753906 -4.664063 l -0.707031 0.707032 c -0.390625 0.390625 -0.390625 1.027344 0 1.414062 c 0.390625 0.390625 1.027343 0.390625 1.417969 0 l 0.707031 -0.707031 c 0.386719 -0.390625 0.386719 -1.023437 0 -1.414063 c -0.390625 -0.390624 -1.027344 -0.390624 -1.417969 0 z m -9.902344 1.40625 l 0.707032 0.707032 c 0.253906 0.253906 0.621093 0.351562 0.96875 0.261718 c 0.34375 -0.09375 0.613281 -0.363281 0.707031 -0.710937 c 0.09375 -0.34375 -0.007813 -0.710937 -0.261719 -0.964844 l -0.707031 -0.707031 c -0.25 -0.253906 -0.621094 -0.351562 -0.964844 -0.261719 c -0.347656 0.09375 -0.617187 0.363281 -0.707031 0.707031 c -0.09375 0.347657 0.003906 0.714844 0.257812 0.96875 z m -1.347656 5.242188 h 1 c 0.550781 0 1 -0.449219 1 -1 s -0.449219 -1 -1 -1 h -1 c -0.550781 0 -1 0.449219 -1 1 s 0.449219 1 1 1 z m 0 0"/>
        <path d="m 8 9 c -0.550781 0 -1 -0.449219 -1 -1 v -3 h -2 v -1 h 0.007812 c -0.003906 -0.265625 0.101563 -0.519531 0.285157 -0.707031 l 2 -2 c 0.390625 -0.390625 1.023437 -0.390625 1.414062 0 l 2 2 c 0.183594 0.1875 0.289063 0.441406 0.289063 0.707031 h 0.003906 v 1 h -2 v 3 c 0 0.550781 -0.449219 1 -1 1 z m 0 0"/>
        <path d="m 6 14 c 0 -1.097656 0.902344 -2 2 -2 s 2 0.902344 2 2 c 0 0.550781 0.449219 1 1 1 s 1 -0.449219 1 -1 c 0 -2.214844 -1.785156 -4 -4 -4 s -4 1.785156 -4 4 c 0 0.550781 0.449219 1 1 1 s 1 -0.449219 1 -1 z m 0 0"/>
    </g>
</svg>
