<?xml version="1.0" encoding="UTF-8"?>
<svg height="16px" viewBox="0 0 16 16" width="16px" xmlns="http://www.w3.org/2000/svg">
    <g fill="#2e3436">
        <path d="m 13.617188 7.058594 c 0.519531 0.519531 0.519531 1.363281 0 1.882812 l -4.675782 4.675782 c -0.519531 0.519531 -1.363281 0.519531 -1.882812 0 l -4.675782 -4.675782 c -0.519531 -0.519531 -0.519531 -1.363281 0 -1.882812 l 4.675782 -4.675782 c 0.519531 -0.519531 1.363281 -0.519531 1.882812 0 z m -7.96875 -6.082032 l -4.671876 4.671876 c -1.300781 1.304687 -1.300781 3.398437 0 4.703124 l 4.671876 4.671876 c 1.304687 1.300781 3.398437 1.300781 4.703124 0 l 4.671876 -4.671876 c 1.300781 -1.304687 1.300781 -3.398437 0 -4.703124 l -4.671876 -4.671876 c -1.304687 -1.300781 -3.398437 -1.300781 -4.703124 0 z m 0 0"/>
        <path d="m 9.433594 4.558594 c -0.199219 0.007812 -0.386719 0.074218 -0.546875 0.1875 c -0.449219 0.324218 -0.550781 0.953125 -0.222657 1.398437 l 0.140626 0.199219 c 0.273437 0.378906 0.226562 0.953125 -0.050782 1.328125 c -0.011718 0.019531 -0.023437 0.035156 -0.035156 0.050781 c -0.273438 0.382813 -0.808594 0.601563 -1.25 0.457032 l -0.230469 -0.074219 c -0.523437 -0.167969 -1.089843 0.117187 -1.257812 0.640625 c -0.171875 0.527344 0.113281 1.09375 0.640625 1.261718 l 0.222656 0.074219 c 0.445312 0.144531 0.738281 0.640625 0.75 1.105469 v 0.066406 c 0.015625 0.464844 -0.304688 0.960938 -0.75 1.105469 l -0.222656 0.074219 c -0.527344 0.171875 -0.8125 0.734375 -0.640625 1.261718 c 0.167969 0.523438 0.734375 0.8125 1.257812 0.640626 l 0.230469 -0.078126 c 0.445312 -0.144531 0.976562 0.082032 1.25 0.457032 c 0.011719 0.019531 0.023438 0.035156 0.039062 0.050781 c 0.019532 0.03125 0.035157 0.058594 0.054688 0.089844 c 0.300781 -0.113281 0.589844 -0.289063 0.835938 -0.535157 l 0.71875 -0.71875 c -0.246094 -0.332031 -0.441407 -0.707031 -0.574219 -1.109374 c -0.003907 -0.011719 -0.007813 -0.023438 -0.011719 -0.035157 c -0.003906 -0.007812 -0.007812 -0.011719 -0.011719 -0.019531 c -0.285156 -0.84375 -0.152343 -1.644531 0 -2.4375 c 0.003907 -0.003906 0.007813 -0.011719 0.011719 -0.015625 c 0.003906 -0.011719 0.007812 -0.027344 0.011719 -0.039063 c 0.261719 -0.789062 0.757812 -1.464843 1.414062 -1.945312 c 0.007813 -0.003906 0.019531 -0.011719 0.027344 -0.015625 c 0.019531 -0.015625 0.042969 -0.03125 0.0625 -0.050781 c 0.644531 -0.449219 1.433594 -0.714844 2.289063 -0.714844 c 0.476562 0 0.929687 0.085938 1.351562 0.234375 c -0.097656 -0.402344 -0.300781 -0.785156 -0.617188 -1.101563 l -1.75 -1.75 c -0.066406 0.410157 -0.410156 0.777344 -0.804687 0.902344 c -0.023437 0.007813 -0.042969 0.015625 -0.0625 0.019532 c -0.445313 0.148437 -1.007813 0.019531 -1.28125 -0.359376 l -0.140625 -0.195312 c -0.15625 -0.210938 -0.390625 -0.355469 -0.652344 -0.398438 c -0.066406 -0.011718 -0.132812 -0.015624 -0.195312 -0.011718 z m 0 0"/>
    </g>
</svg>
