<?xml version="1.0" encoding="UTF-8"?>
<svg height="16px" viewBox="0 0 16 16" width="16px" xmlns="http://www.w3.org/2000/svg">
    <g fill="#2e3436">
        <path d="m 6 7 c 0.675781 0.023438 1.035156 0.695312 1.507812 1.09375 c 0.453126 0.484375 0.980469 0.910156 1.378907 1.441406 c 0.308593 0.539063 -0.039063 1.117188 -0.46875 1.460938 c -0.625 0.605468 -1.214844 1.253906 -1.863281 1.835937 c -0.472657 0.277344 -1.03125 0.132813 -1.554688 0.167969 c 0 -2 0 -4 0 -6 z m 0 0"/>
        <path d="m 4 0 c -0.554688 0 -1 0.445312 -1 1 v 2 c 0 0.0625 0.007812 0.125 0.019531 0.1875 c -0.441406 0.148438 -0.867187 0.394531 -1.222656 0.808594 c -0.476563 0.496094 -0.691406 1.117187 -0.757813 1.640625 c -0.070312 0.535156 -0.039062 1.003906 -0.039062 1.359375 c -0.003906 0.550781 0.445312 1 0.996094 1.003906 c 0.550781 0.003906 1 -0.445312 1.003906 -0.996094 c 0.003906 -0.445312 -0.015625 -0.835937 0.019531 -1.113281 c 0.035157 -0.277344 0.089844 -0.402344 0.210938 -0.523437 l 0.03125 -0.03125 l 0.03125 -0.035157 c 0.207031 -0.25 0.648437 -0.335937 1.308593 -0.300781 h 0.050782 c 2.5 0.007812 4.984375 -0.011719 7.464844 0.011719 c 0.492187 0.035156 0.953124 0.644531 0.890624 1.15625 l -0.007812 0.058593 v 0.054688 c -0.015625 1.332031 0.023438 2.632812 -0.019531 3.890625 c -0.066407 0.472656 -0.65625 0.894531 -1.15625 0.835937 l -0.054688 -0.007812 h -0.769531 c -0.550781 0 -1 0.449219 -1 1 s 0.449219 1 1 1 h 0.699219 c 1.570312 0.128906 3.066406 -0.953125 3.269531 -2.585938 l 0.007812 -0.046874 v -0.042969 c 0.054688 -1.375 0.011719 -2.71875 0.023438 -4.023438 c 0.117188 -1.382812 -0.71875 -2.695312 -2.011719 -3.136719 c 0.007813 -0.054687 0.011719 -0.109374 0.011719 -0.164062 v -2 c 0 -0.554688 -0.445312 -1 -1 -1 s -1 0.445312 -1 1 v 2 c -0.667969 0 -1.335938 -0.003906 -2 0 v -2 c 0 -0.554688 -0.445312 -1 -1 -1 s -1 0.445312 -1 1 v 2 c -0.667969 0 -1.335938 0 -2 0 v -2 c 0 -0.554688 -0.445312 -1 -1 -1 z m 1 9 c -2.199219 0 -4 1.800781 -4 4 v 2 c 0 0.550781 0.449219 1 1 1 s 1 -0.449219 1 -1 v -2 c 0 -1.117188 0.882812 -2 2 -2 h 1 c 0.550781 0 1 -0.449219 1 -1 s -0.449219 -1 -1 -1 z m 0 0"/>
    </g>
</svg>
