<?xml version="1.0" encoding="UTF-8"?>
<svg height="16px" viewBox="0 0 16 16" width="16px" xmlns="http://www.w3.org/2000/svg">
    <g fill="#2e3436">
        <path d="m 3.992188 8.988281 c -1.089844 0 -2 -0.910156 -2 -2 v -5 c 0 -1.089843 0.910156 -1.9999998 2 -1.9999998 h 6.082031 c 0.578125 0 1.128906 0.2460938 1.511719 0.6796878 l 1.820312 2.046875 c 0.378906 0.429687 0.585938 0.980468 0.585938 1.550781 v 2.722656 c 0 1.089844 -0.910157 2 -2 2 z m 0 -2.980469 h 8 v -2.023437 l -1.929688 -1.996094 h -6.070312 z m 0 0"/>
        <path d="m 1.992188 10.976562 c -1.109376 0 -2.0000005 -0.890624 -2.0000005 -2 v -1.988281 c 0 -1.109375 0.8906245 -2 2.0000005 -2 h 1 v 2 c 0 0.554688 0.445312 1 1 1 h 8 c 0.554687 0 1 -0.445312 1 -1 v -2 h 1 c 1.109374 0 2 0.890625 2 2 v 1.988281 c 0 1.109376 -0.890626 2 -2 2 z m 0 0"/>
        <path d="m 7.988281 11.988281 c -0.703125 0 -1.351562 0.371094 -1.714843 0.972657 h -3.285157 c -0.550781 0 -1 0.449218 -1 1 c 0 0.550781 0.449219 1 1 1 h 3.246094 c 0.351563 0.640624 1.023437 1.035156 1.753906 1.039062 c 0.730469 -0.003906 1.398438 -0.398438 1.75 -1.039062 h 3.261719 c 0.550781 0 1 -0.449219 1 -1 c 0 -0.550782 -0.449219 -1 -1 -1 h -3.292969 c -0.363281 -0.601563 -1.015625 -0.972657 -1.71875 -0.972657 z m 0 1 c 0.554688 0 1.003907 0.449219 1.003907 1.003907 c 0 0.558593 -0.449219 1.007812 -1.003907 1.007812 c -0.554687 0 -1.007812 -0.449219 -1.007812 -1.007812 c 0 -0.554688 0.453125 -1.003907 1.007812 -1.003907 z m 0 0"/>
        <path d="m 6.984375 9.988281 h 2.007813 v 3 h -2.007813 z m 0 0"/>
    </g>
</svg>
